<svg width="136" height="140" viewBox="0 0 136 140" fill="none" xmlns="http://www.w3.org/2000/svg">
<mask id="path-1-outside-1_1545_54" maskUnits="userSpaceOnUse" x="0" y="0" width="136" height="140" fill="black">
<rect fill="white" width="136" height="140"/>
<path fill-rule="evenodd" clip-rule="evenodd" d="M81.309 107.916C106.582 103.776 132 88.2587 132 59.5468C132 25.5344 97.8665 4 69.024 4C40.1815 4 4 19.4967 4 53.5091C4 81.2151 26.9891 100.642 51.104 106.893V112.981L66.464 117.419L67.488 132L85.92 118.687L79.776 111.079L81.309 107.916Z"/>
</mask>
<path fill-rule="evenodd" clip-rule="evenodd" d="M81.309 107.916C106.582 103.776 132 88.2587 132 59.5468C132 25.5344 97.8665 4 69.024 4C40.1815 4 4 19.4967 4 53.5091C4 81.2151 26.9891 100.642 51.104 106.893V112.981L66.464 117.419L67.488 132L85.92 118.687L79.776 111.079L81.309 107.916Z" fill="black"/>
<path d="M81.309 107.916L80.6625 103.968L78.6144 104.304L77.7094 106.171L81.309 107.916ZM51.104 106.893H55.104V103.798L52.1078 103.021L51.104 106.893ZM51.104 112.981H47.104V115.989L49.9938 116.824L51.104 112.981ZM66.464 117.419L70.4542 117.139L70.2584 114.352L67.5743 113.576L66.464 117.419ZM67.488 132L63.4978 132.28L64.0015 139.453L69.8301 135.243L67.488 132ZM85.92 118.687L88.2621 121.929L91.6842 119.458L89.0319 116.174L85.92 118.687ZM79.776 111.079L76.1764 109.335L75.0699 111.619L76.6641 113.593L79.776 111.079ZM128 59.5468C128 72.5647 122.295 82.5502 113.56 89.8823C104.732 97.293 92.7854 101.983 80.6625 103.968L81.9555 111.863C95.1053 109.709 108.505 104.571 118.703 96.0097C128.996 87.3702 136 75.2408 136 59.5468H128ZM69.024 8C82.528 8 97.3985 13.0691 108.841 22.1517C120.23 31.192 128 44.0025 128 59.5468H136C136 41.0787 126.703 26.1158 113.815 15.8858C100.98 5.69808 84.3625 0 69.024 0V8ZM8 53.5091C8 38.1672 16.0724 26.9354 27.8578 19.3654C39.7512 11.7261 55.2237 8 69.024 8V0C53.9818 0 36.9423 4.02219 23.5343 12.6343C10.0183 21.3158 0 34.8385 0 53.5091H8ZM52.1078 103.021C29.0057 97.0322 8 78.7175 8 53.5091H0C0 83.7127 24.9725 104.251 50.1003 110.765L52.1078 103.021ZM55.104 112.981V106.893H47.104V112.981H55.104ZM67.5743 113.576L52.2143 109.138L49.9938 116.824L65.3538 121.262L67.5743 113.576ZM71.4782 131.72L70.4542 117.139L62.4738 117.699L63.4978 132.28L71.4782 131.72ZM83.5779 115.444L65.1459 128.757L69.8301 135.243L88.2621 121.929L83.5779 115.444ZM76.6641 113.593L82.8081 121.2L89.0319 116.174L82.8879 108.566L76.6641 113.593ZM77.7094 106.171L76.1764 109.335L83.3756 112.824L84.9086 109.66L77.7094 106.171Z" fill="white" mask="url(#path-1-outside-1_1545_54)"/>
</svg>
