<svg width="560" height="256" viewBox="0 0 560 256" fill="none" xmlns="http://www.w3.org/2000/svg">
<g clip-path="url(#clip0_1852_78)">
<path d="M33.4999 28.5C29.8742 24.27 32.8333 20.6667 34.4999 20C35.1812 19.7275 36.9999 20 37.4999 18.5C37.9999 10.5 30.1732 11.1313 28.9999 12.5C25.9999 16 27.5223 22.0893 28.4999 26C28.9999 28 32.9999 36.5 34.9999 41C37.4999 46.6667 41.9999 59.5 42.4999 63.5C43.4999 68.5 45 85 42.9999 89C40.0166 94.9666 35 101 26.9999 99C25 98 20 96.5 20 90.5C20 84 27.5 80 29.5002 85C30.9505 88.6257 26.9999 92 29.0002 94C32.5 96 37.5194 88.2456 38.5 85.5C41 78.5 36 57.5 34 51.5C32.6962 47.5885 24.3463 29.5 22.5 23.5C20.4998 17 23.9002 3.70004 33.5002 6.50004C43.1002 9.30004 43.4999 21.5 41.5002 27C40.9999 29.5 36.4999 32 33.4999 28.5Z" fill="#1A1818"/>
<path d="M29.8637 140.754C35.0033 133.997 30.8088 128.241 28.4462 127.176C27.4805 126.741 24.9025 127.176 24.1937 124.78C23.485 112 34.5795 113.008 36.2425 115.195C40.495 120.786 38.3372 130.513 36.9513 136.761C36.2425 139.956 30.5725 153.534 27.7375 160.723C24.1937 169.775 17.8149 190.276 17.1062 196.666C15.6887 204.653 13.5624 231.011 16.3974 237.401C20.6263 246.933 27.7374 256.571 39.0775 253.376C41.9125 251.778 49 249.382 49 239.797C49 229.414 38.3687 223.024 35.5335 231.011C33.4775 236.803 39.0775 242.194 36.2422 245.388C31.2812 248.583 24.1661 236.196 22.7761 231.81C19.2324 220.628 26.3199 187.081 29.1549 177.496C31.0031 171.248 42.8391 142.352 45.4562 132.767C48.2915 122.383 43.4715 101.137 29.8634 105.61C16.2554 110.083 15.6887 129.572 18.5234 138.358C19.2325 142.352 25.6112 146.345 29.8637 140.754Z" fill="#1A1818"/>
<path d="M520.486 23.3819C524.112 19.1518 521.153 15.5485 519.486 14.8819C518.805 14.6094 516.986 14.8819 516.486 13.3819C515.986 5.38187 523.813 6.0131 524.986 7.38187C527.986 10.8819 526.464 16.9711 525.486 20.8819C524.986 22.8819 520.986 31.3819 518.986 35.8819C516.486 41.5485 511.986 54.3819 511.486 58.3819C510.486 63.3819 507.5 80.5 509.5 84.5C512.483 90.4666 517.5 97.5 525.5 95.5C527.5 94.5 534.5 89.5 534.5 83.5C534.5 77 525.5 70 520.514 75.6181C514.693 82.177 524.5 85 522.5 87C519 89 516.466 83.1275 515.486 80.3819C512.986 73.3818 517.986 52.3819 519.986 46.3819C521.29 42.4704 529.64 24.3818 531.486 18.3818C533.486 11.8818 530.086 -1.41812 520.486 1.38188C510.886 4.18188 510.486 16.3819 512.486 21.8819C512.986 24.3819 517.486 26.8819 520.486 23.3819Z" fill="#1A1818"/>
<path d="M519.661 177.465C523.286 181.695 520.327 185.299 518.661 185.965C517.979 186.238 516.161 185.965 515.661 187.465C515.161 195.465 522.987 194.834 524.161 193.465C527.161 189.965 525.638 183.876 524.661 179.965C524.161 177.965 520.161 169.465 518.161 164.965C515.661 159.299 511.161 146.465 510.661 142.465C509.661 137.465 506.675 120.347 508.675 116.347C511.658 110.381 516.675 103.347 524.675 105.347C526.675 106.347 533.675 111.347 533.675 117.347C533.675 123.847 524.675 130.847 519.689 125.229C513.868 118.67 523.675 115.847 521.675 113.847C518.175 111.847 515.641 117.72 514.661 120.465C512.161 127.465 517.161 148.465 519.161 154.465C520.464 158.377 528.814 176.465 530.661 182.465C532.661 188.965 529.26 202.265 519.66 199.465C510.06 196.665 509.661 184.465 511.66 178.965C512.161 176.465 516.661 173.965 519.661 177.465Z" fill="#1A1818"/>
<path d="M0.09375 113.537C1.13263 112.914 2.16811 112.282 3.26102 111.758" stroke="black" stroke-width="2" stroke-linecap="round"/>
<path d="M0.180664 108.634C1.1985 108.023 2.45309 107.99 3.60826 107.94" stroke="black" stroke-width="2" stroke-linecap="round"/>
<path d="M88.5046 255.972C89.1628 255.083 89.7871 254.15 90.5159 253.317" stroke="black" stroke-width="2" stroke-linecap="round"/>
<path d="M95.906 255.891L96.8714 251.467" stroke="black" stroke-width="2" stroke-linecap="round"/>
<path d="M543.126 242.825C545.248 245.957 547.271 249.198 549.54 252.223" stroke="black" stroke-width="2" stroke-linecap="round"/>
<path d="M547.75 243.422C549.738 247.553 551.756 251.741 554.164 255.654" stroke="black" stroke-width="2" stroke-linecap="round"/>
<path d="M553.418 242.974C553.546 246.558 553.39 250.322 554.015 253.864" stroke="black" stroke-width="2" stroke-linecap="round"/>
<path d="M555.798 11.1621C551.204 16.1307 546.34 20.9323 541.968 26.0983" stroke="black" stroke-width="2" stroke-linecap="round"/>
<path d="M554.692 18.0771C551.411 23.2961 547.895 28.3688 544.442 33.4744C543.797 34.429 543.245 35.2889 542.798 36.3325" stroke="black" stroke-width="2" stroke-linecap="round"/>
<path d="M558.564 22.2261C553.863 32.4835 549.168 42.678 543.905 52.6517" stroke="black" stroke-width="2" stroke-linecap="round"/>
<path d="M164.101 3.35083L197.951 15.1469" stroke="black" stroke-width="2" stroke-linecap="round"/>
<path d="M177.948 2.32495L199.489 12.0695" stroke="black" stroke-width="2" stroke-linecap="round"/>
<path d="M191.796 3.35083C199.63 5.34244 207.239 8.44076 214.875 11.0439" stroke="black" stroke-width="2" stroke-linecap="round"/>
<path d="M403.82 249.371L415.714 246.993" stroke="black" stroke-width="2" stroke-linecap="round"/>
<path d="M414.694 250.391L423.869 248.692" stroke="black" stroke-width="2" stroke-linecap="round"/>
<path d="M418.772 252.09C421.836 251.819 424.891 251.416 427.947 251.07" stroke="black" stroke-width="2" stroke-linecap="round"/>
<path d="M17.1477 141.388L19.6836 144.819" stroke="black" stroke-width="2" stroke-linecap="round"/>
<path d="M14.1643 141.388C15.2817 143.866 16.7506 146.121 18.1919 148.399" stroke="black" stroke-width="2" stroke-linecap="round"/>
<path d="M44.2464 21.6013C44.0598 24.3203 43.6904 27.0283 43.3965 29.7366" stroke="black" stroke-width="2" stroke-linecap="round"/>
<path d="M45.4607 21.9656C46.0072 24.5957 47.073 27.5574 46.4253 30.2695C46.2439 31.0293 45.928 31.7161 45.5821 32.4079" stroke="black" stroke-width="2" stroke-linecap="round"/>
<path d="M522.391 129.902L529.253 128.56" stroke="black" stroke-width="2" stroke-linecap="round"/>
<path d="M524.927 132.438C527.212 132.069 529.498 131.721 531.789 131.394" stroke="black" stroke-width="2" stroke-linecap="round"/>
<path d="M505.833 20.1121C506.057 21.8049 506.695 23.405 507.176 25.0347" stroke="black" stroke-width="2" stroke-linecap="round"/>
<path d="M501.955 21.1565C502.842 23.2716 503.831 25.3378 504.789 27.4217" stroke="black" stroke-width="2" stroke-linecap="round"/>
</g>
<defs>
<clipPath id="clip0_1852_78">
<rect width="560" height="256" fill="white"/>
</clipPath>
</defs>
</svg>
