<svg width="1024" height="1024" viewBox="0 0 1024 1024" fill="none" xmlns="http://www.w3.org/2000/svg">
<rect x="24" y="24" width="464" height="80" fill="white"/>
<path d="M537 920H1001L1007.5 1000H531L537 920Z" fill="white"/>
<path d="M24 920H488L494.5 1000H18L24 920Z" fill="white"/>
<path d="M543.5 790.5L994 795L1008 875.5L537 868.5L543.5 790.5Z" fill="white"/>
<path d="M27 801L480.5 796.5L493 880L19.5 874L27 801Z" fill="white"/>
<path d="M539.5 27L1000 30V104H536L539.5 27Z" fill="white"/>
<path d="M31 165L494 152L487 233H23L31 165Z" fill="white"/>
<path d="M545 155.5L1003.5 152.5L994.5 229.5L533.5 235.5L545 155.5Z" fill="white"/>
<path d="M32.5 286.5L490.5 278.5L477 358.5L20.5 363.5L32.5 286.5Z" fill="white"/>
<path d="M546.5 285L996 279L991.5 363.5L538.5 364.5L546.5 285Z" fill="white"/>
<path d="M36.5 418.5L479 409L483 492.5L31 498.5L36.5 418.5Z" fill="white"/>
<path d="M545.5 419L985.5 410.5L996.5 493.5H545.5V419Z" fill="white"/>
<path d="M33.5 557.5L473 534.5L490 621.5H33.5V557.5Z" fill="white"/>
<path d="M555 550L986 535.5L1003 622.5L553.5 619.5L555 550Z" fill="white"/>
<path d="M39 677L472 663.5L489 750.5L29 744.5L39 677Z" fill="white"/>
<path d="M563.5 668.5L985 663.5L1002 750.5L553.5 742.5L563.5 668.5Z" fill="white"/>
</svg>
