<svg width="384" height="96" viewBox="0 0 384 96" fill="none" xmlns="http://www.w3.org/2000/svg">
<path d="M288.5 66C291.833 66.1667 297.7 64.4 294.5 56C290.5 45.5 278.5 66 288.5 66Z" fill="#CA2424" stroke="#CA2424"/>
<ellipse cx="191.5" cy="48" rx="104.5" ry="48" fill="#CA2424"/>
<path d="M286.5 48.5C286.5 71.696 242.034 90 191.5 90C140.966 90 97.9999 71.696 97.9999 48.5C97.9999 25.304 140.966 6 191.5 6C242.034 6 286.5 25.304 286.5 48.5Z" fill="#F2DB95"/>
<path d="M108.5 66.5001C101.5 66.5001 89.0998 59.0999 99.4998 49.4999C112.5 37.4999 126.5 62.4999 108.5 66.5001Z" fill="#F2DB95"/>
<path d="M283 32C283.8 23.2 276 27 272.5 28C262.5 41 276.5 48 287 47C297.5 46 291.5 27.5001 283 32Z" fill="#F2DB95"/>
<path d="M115.095 30.396C116.007 30.396 116.955 30.564 117.939 30.9C118.923 31.236 119.787 31.668 120.531 32.196C120.291 33.42 120.063 34.524 119.847 35.508C119.655 36.492 119.475 37.392 119.307 38.208C119.139 39 118.971 39.732 118.803 40.404C118.659 41.052 118.515 41.664 118.371 42.24C117.795 44.4 117.195 46.356 116.571 48.108C115.971 49.836 115.323 51.396 114.627 52.788C113.955 54.18 113.235 55.416 112.467 56.496C111.723 57.576 110.919 58.524 110.055 59.34C109.215 60.132 108.375 60.78 107.535 61.284C106.695 61.788 105.915 62.112 105.195 62.256C104.235 62.256 103.347 62.148 102.531 61.932C101.715 61.716 101.007 61.416 100.407 61.032C99.831 60.672 99.375 60.228 99.039 59.7C98.727 59.196 98.571 58.632 98.571 58.008C98.571 57.336 98.739 56.496 99.075 55.488C99.411 54.456 99.927 53.244 100.623 51.852C100.911 51.876 101.247 51.948 101.631 52.068C102.015 52.188 102.399 52.332 102.783 52.5C103.167 52.668 103.515 52.86 103.827 53.076C104.139 53.268 104.367 53.46 104.511 53.652C103.743 54.444 103.119 55.32 102.639 56.28C102.159 57.216 101.919 58.032 101.919 58.728C101.919 59.136 101.991 59.496 102.135 59.808C102.303 60.144 102.579 60.444 102.963 60.708C104.427 60.156 105.855 59.124 107.247 57.612C108.639 56.124 109.875 54.264 110.955 52.032C111.603 50.712 112.191 49.2 112.719 47.496C113.247 45.792 113.691 44.088 114.051 42.384C114.435 40.656 114.723 39.012 114.915 37.452C115.131 35.868 115.239 34.536 115.239 33.456C115.239 33.288 115.227 33.06 115.203 32.772C115.203 32.46 115.191 32.148 115.167 31.836C115.167 31.5 115.155 31.2 115.131 30.936C115.107 30.672 115.095 30.492 115.095 30.396ZM131.836 42.456C132.076 42.456 132.352 42.504 132.664 42.6C133 42.672 133.3 42.78 133.564 42.924C133.828 43.044 134.044 43.176 134.212 43.32C134.404 43.464 134.5 43.596 134.5 43.716C134.02 44.724 133.576 45.744 133.168 46.776C132.76 47.784 132.412 48.756 132.124 49.692C131.836 50.628 131.608 51.504 131.44 52.32C131.296 53.136 131.224 53.844 131.224 54.444C131.224 55.116 131.296 55.68 131.44 56.136C131.584 56.568 131.824 56.88 132.16 57.072C131.872 57.264 131.5 57.42 131.044 57.54C130.588 57.66 130.18 57.72 129.82 57.72C128.524 57.72 127.876 56.832 127.876 55.056C127.876 53.688 128.332 51.816 129.244 49.44C128.764 50.544 128.212 51.588 127.588 52.572C126.964 53.532 126.328 54.384 125.68 55.128C125.032 55.872 124.372 56.484 123.7 56.964C123.052 57.42 122.452 57.696 121.9 57.792C121.012 57.744 120.292 57.324 119.74 56.532C119.188 55.716 118.912 54.684 118.912 53.436C118.912 52.092 119.2 50.676 119.776 49.188C120.352 47.7 121.084 46.32 121.972 45.048C122.884 43.776 123.868 42.72 124.924 41.88C125.98 41.016 127 40.56 127.984 40.512C128.224 40.584 128.488 40.728 128.776 40.944C129.088 41.16 129.376 41.412 129.64 41.7C129.928 41.988 130.168 42.288 130.36 42.6C130.552 42.888 130.66 43.14 130.684 43.356C129.724 43.5 128.728 43.968 127.696 44.76C126.688 45.552 125.764 46.512 124.924 47.64C124.108 48.744 123.436 49.932 122.908 51.204C122.38 52.476 122.116 53.664 122.116 54.768C122.116 55.224 122.284 55.512 122.62 55.632C123.316 55.488 124.12 54.9 125.032 53.868C125.944 52.812 127.048 51.192 128.344 49.008C128.584 48.576 128.848 48.096 129.136 47.568C129.448 47.04 129.76 46.488 130.072 45.912C130.384 45.336 130.684 44.76 130.972 44.184C131.284 43.584 131.572 43.008 131.836 42.456ZM149.038 42.096C148.942 43.584 148.678 44.868 148.246 45.948C147.814 47.004 147.19 47.94 146.374 48.756C145.582 49.548 144.61 50.268 143.458 50.916C142.306 51.564 140.962 52.188 139.426 52.788C139.426 52.932 139.414 53.088 139.39 53.256C139.39 53.4 139.39 53.556 139.39 53.724C139.39 54.036 139.414 54.36 139.462 54.696C139.51 55.032 139.594 55.344 139.714 55.632C139.834 55.92 140.002 56.16 140.218 56.352C140.434 56.52 140.71 56.604 141.046 56.604C141.694 56.604 142.33 56.46 142.954 56.172C143.578 55.884 144.166 55.536 144.718 55.128C145.294 54.696 145.822 54.24 146.302 53.76C146.806 53.256 147.25 52.8 147.634 52.392C147.874 52.608 148.078 52.812 148.246 53.004C147.166 54.444 145.978 55.644 144.682 56.604C143.41 57.54 142.198 58.14 141.046 58.404C139.39 58.212 138.094 57.612 137.158 56.604C136.246 55.572 135.79 54.336 135.79 52.896C135.79 51.912 135.922 50.916 136.186 49.908C136.474 48.876 136.858 47.892 137.338 46.956C137.842 45.996 138.418 45.096 139.066 44.256C139.738 43.416 140.446 42.684 141.19 42.06C141.958 41.436 142.738 40.944 143.53 40.584C144.346 40.224 145.15 40.044 145.942 40.044C147.046 40.188 148.078 40.872 149.038 42.096ZM146.554 43.284C145.906 43.38 145.234 43.644 144.538 44.076C143.842 44.508 143.182 45.084 142.558 45.804C141.958 46.524 141.406 47.364 140.902 48.324C140.398 49.284 140.002 50.316 139.714 51.42C141.634 50.46 143.23 49.284 144.502 47.892C145.774 46.476 146.458 44.94 146.554 43.284ZM143.433 67.728C143.433 67.584 143.481 67.452 143.577 67.332C143.673 67.212 143.781 67.092 143.901 66.972C144.189 67.236 144.441 67.44 144.657 67.584C144.849 67.728 145.041 67.848 145.233 67.944C145.401 68.04 145.581 68.1 145.773 68.124C145.965 68.148 146.193 68.16 146.457 68.16C147.705 68.16 148.893 67.824 150.021 67.152C151.149 66.504 152.205 65.556 153.189 64.308C154.197 63.06 155.109 61.536 155.925 59.736C156.741 57.936 157.461 55.896 158.085 53.616C157.797 53.904 157.437 54.228 157.005 54.588C156.597 54.924 156.165 55.248 155.709 55.56C155.253 55.872 154.797 56.16 154.341 56.424C153.909 56.688 153.537 56.88 153.225 57C152.817 56.928 152.433 56.76 152.073 56.496C151.737 56.208 151.437 55.86 151.173 55.452C150.909 55.044 150.705 54.588 150.561 54.084C150.417 53.556 150.345 53.004 150.345 52.428C150.345 51.492 150.513 50.532 150.849 49.548C151.209 48.564 151.677 47.604 152.253 46.668C152.829 45.708 153.501 44.808 154.269 43.968C155.061 43.128 155.889 42.396 156.753 41.772C157.641 41.148 158.529 40.656 159.417 40.296C160.329 39.912 161.217 39.72 162.081 39.72C162.921 39.72 163.545 39.9 163.953 40.26C164.385 40.596 164.697 41.184 164.889 42.024C164.625 41.88 164.289 41.808 163.881 41.808C163.305 41.808 162.633 42.036 161.865 42.492C161.121 42.948 160.353 43.548 159.561 44.292C158.793 45.012 158.025 45.852 157.257 46.812C156.489 47.748 155.805 48.708 155.205 49.692C154.629 50.676 154.149 51.636 153.765 52.572C153.405 53.508 153.225 54.348 153.225 55.092C153.225 55.26 153.237 55.368 153.261 55.416C153.285 55.44 153.321 55.452 153.369 55.452C153.585 55.452 153.873 55.332 154.233 55.092C154.617 54.852 155.037 54.552 155.493 54.192C155.973 53.808 156.465 53.376 156.969 52.896C157.473 52.392 157.953 51.888 158.409 51.384C159.441 50.232 160.377 48.948 161.217 47.532C162.081 46.092 162.765 44.7 163.269 43.356C163.917 43.404 164.493 43.512 164.997 43.68C165.501 43.848 165.849 44.028 166.041 44.22C165.225 46.092 164.565 47.664 164.061 48.936C163.581 50.208 163.161 51.336 162.801 52.32C162.153 54.048 161.541 55.62 160.965 57.036C160.413 58.476 159.837 59.796 159.237 60.996C158.661 62.22 158.025 63.348 157.329 64.38C156.657 65.436 155.889 66.444 155.025 67.404C154.617 67.86 154.149 68.256 153.621 68.592C153.117 68.952 152.589 69.252 152.037 69.492C151.509 69.732 150.981 69.912 150.453 70.032C149.949 70.152 149.481 70.212 149.049 70.212C148.473 70.212 147.885 70.14 147.285 69.996C146.685 69.876 146.133 69.696 145.629 69.456C145.101 69.24 144.645 68.976 144.261 68.664C143.877 68.376 143.601 68.064 143.433 67.728ZM179.8 42.096C179.704 43.584 179.44 44.868 179.008 45.948C178.576 47.004 177.952 47.94 177.136 48.756C176.344 49.548 175.372 50.268 174.22 50.916C173.068 51.564 171.724 52.188 170.188 52.788C170.188 52.932 170.176 53.088 170.152 53.256C170.152 53.4 170.152 53.556 170.152 53.724C170.152 54.036 170.176 54.36 170.224 54.696C170.272 55.032 170.356 55.344 170.476 55.632C170.596 55.92 170.764 56.16 170.98 56.352C171.196 56.52 171.472 56.604 171.808 56.604C172.456 56.604 173.092 56.46 173.716 56.172C174.34 55.884 174.928 55.536 175.48 55.128C176.056 54.696 176.584 54.24 177.064 53.76C177.568 53.256 178.012 52.8 178.396 52.392C178.636 52.608 178.84 52.812 179.008 53.004C177.928 54.444 176.74 55.644 175.444 56.604C174.172 57.54 172.96 58.14 171.808 58.404C170.152 58.212 168.856 57.612 167.92 56.604C167.008 55.572 166.552 54.336 166.552 52.896C166.552 51.912 166.684 50.916 166.948 49.908C167.236 48.876 167.62 47.892 168.1 46.956C168.604 45.996 169.18 45.096 169.828 44.256C170.5 43.416 171.208 42.684 171.952 42.06C172.72 41.436 173.5 40.944 174.292 40.584C175.108 40.224 175.912 40.044 176.704 40.044C177.808 40.188 178.84 40.872 179.8 42.096ZM177.316 43.284C176.668 43.38 175.996 43.644 175.3 44.076C174.604 44.508 173.944 45.084 173.32 45.804C172.72 46.524 172.168 47.364 171.664 48.324C171.16 49.284 170.764 50.316 170.476 51.42C172.396 50.46 173.992 49.284 175.264 47.892C176.536 46.476 177.22 44.94 177.316 43.284ZM180.603 56.28C180.723 55.584 180.927 54.672 181.215 53.544C181.527 52.392 181.887 51.18 182.295 49.908C182.703 48.612 183.135 47.316 183.591 46.02C184.047 44.724 184.491 43.56 184.923 42.528C185.235 41.784 185.511 41.208 185.751 40.8C185.991 40.368 186.255 40.008 186.543 39.72C186.879 39.768 187.227 39.852 187.587 39.972C187.947 40.092 188.295 40.236 188.631 40.404C188.967 40.572 189.267 40.752 189.531 40.944C189.795 41.112 189.999 41.28 190.143 41.448C189.495 42.216 188.919 43.092 188.415 44.076C187.935 45.06 187.443 46.32 186.939 47.856C188.235 46.704 189.375 45.6 190.359 44.544C191.367 43.488 192.303 42.312 193.167 41.016C193.311 40.896 193.563 40.836 193.923 40.836C194.259 40.836 194.583 40.896 194.895 41.016C195.207 41.112 195.423 41.256 195.543 41.448C195.111 42.6 194.895 43.74 194.895 44.868C194.895 45.924 195.051 46.716 195.363 47.244C195.339 47.388 195.171 47.664 194.859 48.072C194.571 48.48 194.247 48.864 193.887 49.224C193.239 48.888 192.663 48.432 192.159 47.856C191.655 47.256 191.283 46.608 191.043 45.912C189.915 46.704 188.955 47.484 188.163 48.252C187.371 48.996 186.687 49.836 186.111 50.772C185.559 51.684 185.079 52.74 184.671 53.94C184.287 55.14 183.915 56.568 183.555 58.224C183.339 58.2 183.075 58.116 182.763 57.972C182.475 57.852 182.175 57.696 181.863 57.504C181.575 57.312 181.311 57.108 181.071 56.892C180.831 56.676 180.675 56.472 180.603 56.28ZM200.361 38.064C200.217 37.944 200.085 37.752 199.965 37.488C199.845 37.2 199.785 36.936 199.785 36.696C200.385 35.688 200.817 34.68 201.081 33.672C201.345 32.64 201.477 31.488 201.477 30.216C201.477 29.256 201.405 28.2 201.261 27.048C201.861 27.096 202.449 27.204 203.025 27.372C203.625 27.516 204.153 27.708 204.609 27.948C205.089 28.164 205.485 28.428 205.797 28.74C206.109 29.028 206.301 29.316 206.373 29.604C205.461 33.612 203.457 36.432 200.361 38.064ZM214.101 42.672C214.077 43.128 213.993 43.608 213.849 44.112C213.729 44.592 213.573 45.036 213.381 45.444C213.189 45.828 212.985 46.152 212.769 46.416C212.553 46.68 212.349 46.812 212.157 46.812C211.893 46.788 211.737 46.608 211.689 46.272C211.689 46.2 211.713 46.092 211.761 45.948C211.833 45.78 211.905 45.6 211.977 45.408C212.049 45.216 212.109 45.024 212.157 44.832C212.229 44.64 212.265 44.472 212.265 44.328C212.265 43.992 212.181 43.716 212.013 43.5C211.869 43.26 211.665 43.14 211.401 43.14C210.441 43.14 209.709 43.74 209.205 44.94C208.701 46.14 208.449 47.904 208.449 50.232C208.449 50.472 208.461 50.616 208.485 50.664C208.989 50.64 209.433 50.628 209.817 50.628C210.225 50.604 210.621 50.592 211.005 50.592C211.029 50.64 211.041 50.736 211.041 50.88C211.041 51.096 210.993 51.252 210.897 51.348C210.345 51.468 209.901 51.576 209.565 51.672C209.253 51.744 209.013 51.816 208.845 51.888C208.677 51.96 208.569 52.044 208.521 52.14C208.497 52.212 208.485 52.32 208.485 52.464C208.485 52.656 208.485 52.848 208.485 53.04C208.509 53.232 208.521 53.472 208.521 53.76C208.521 55.776 207.969 57.396 206.865 58.62C205.785 59.844 204.273 60.552 202.329 60.744C201.993 60.72 201.645 60.624 201.285 60.456C200.925 60.288 200.577 60.072 200.241 59.808C199.929 59.544 199.653 59.244 199.413 58.908C199.173 58.596 199.005 58.272 198.909 57.936C198.909 57.024 199.101 56.16 199.485 55.344C199.869 54.504 200.385 53.772 201.033 53.148C201.705 52.5 202.485 51.984 203.373 51.6C204.285 51.192 205.269 50.952 206.325 50.88C206.325 50.28 206.265 49.692 206.145 49.116C206.025 48.54 205.893 47.988 205.749 47.46C205.629 46.908 205.509 46.38 205.389 45.876C205.269 45.348 205.209 44.832 205.209 44.328C205.209 43.68 205.341 43.044 205.605 42.42C205.869 41.772 206.217 41.184 206.649 40.656C207.081 40.104 207.585 39.636 208.161 39.252C208.737 38.868 209.337 38.604 209.961 38.46C210.225 38.532 210.573 38.748 211.005 39.108C211.461 39.444 211.905 39.828 212.337 40.26C212.769 40.692 213.153 41.136 213.489 41.592C213.825 42.024 214.029 42.384 214.101 42.672ZM202.221 59.088C202.797 58.848 203.337 58.5 203.841 58.044C204.369 57.588 204.825 57.072 205.209 56.496C205.593 55.92 205.893 55.308 206.109 54.66C206.349 54.012 206.469 53.376 206.469 52.752C205.989 52.824 205.461 53.052 204.885 53.436C204.309 53.796 203.769 54.24 203.265 54.768C202.761 55.272 202.341 55.8 202.005 56.352C201.669 56.904 201.501 57.384 201.501 57.792C201.501 58.32 201.741 58.752 202.221 59.088ZM224.325 49.944C224.325 48.264 224.517 46.62 224.901 45.012C225.309 43.38 225.873 41.844 226.593 40.404C227.313 38.94 228.165 37.608 229.149 36.408C230.157 35.184 231.249 34.128 232.425 33.24C233.625 32.352 234.897 31.668 236.241 31.188C237.585 30.684 238.965 30.432 240.381 30.432C242.037 30.432 243.321 30.78 244.233 31.476C245.169 32.172 245.637 33.144 245.637 34.392C245.637 34.872 245.565 35.364 245.421 35.868C245.301 36.372 245.109 36.876 244.845 37.38C244.605 37.86 244.317 38.328 243.981 38.784C243.645 39.24 243.273 39.636 242.865 39.972C242.241 39.876 241.701 39.6 241.245 39.144C240.789 38.664 240.501 38.112 240.381 37.488C241.221 36.792 241.881 36.072 242.361 35.328C242.865 34.56 243.117 33.864 243.117 33.24C243.117 32.184 242.457 31.656 241.137 31.656C240.585 31.656 240.009 31.776 239.409 32.016C238.833 32.232 238.245 32.544 237.645 32.952C237.045 33.36 236.457 33.852 235.881 34.428C235.329 35.004 234.813 35.64 234.333 36.336C230.997 41.136 229.329 46.044 229.329 51.06C229.329 52.836 229.605 54.264 230.157 55.344C230.709 56.424 231.441 57.06 232.353 57.252C233.385 57.012 234.693 56.352 236.277 55.272C237.861 54.192 239.589 52.788 241.461 51.06C241.701 51.3 241.845 51.552 241.893 51.816C241.197 52.728 240.477 53.604 239.733 54.444C238.989 55.284 238.245 56.052 237.501 56.748C236.781 57.444 236.061 58.056 235.341 58.584C234.645 59.112 233.997 59.52 233.397 59.808C230.421 59.76 228.165 58.908 226.629 57.252C225.093 55.596 224.325 53.16 224.325 49.944ZM256.851 42.456C257.091 42.456 257.367 42.504 257.679 42.6C258.015 42.672 258.315 42.78 258.579 42.924C258.843 43.044 259.059 43.176 259.227 43.32C259.419 43.464 259.515 43.596 259.515 43.716C259.035 44.724 258.591 45.744 258.183 46.776C257.775 47.784 257.427 48.756 257.139 49.692C256.851 50.628 256.623 51.504 256.455 52.32C256.311 53.136 256.239 53.844 256.239 54.444C256.239 55.116 256.311 55.68 256.455 56.136C256.599 56.568 256.839 56.88 257.175 57.072C256.887 57.264 256.515 57.42 256.059 57.54C255.603 57.66 255.195 57.72 254.835 57.72C253.539 57.72 252.891 56.832 252.891 55.056C252.891 53.688 253.347 51.816 254.259 49.44C253.779 50.544 253.227 51.588 252.603 52.572C251.979 53.532 251.343 54.384 250.695 55.128C250.047 55.872 249.387 56.484 248.715 56.964C248.067 57.42 247.467 57.696 246.915 57.792C246.027 57.744 245.307 57.324 244.755 56.532C244.203 55.716 243.927 54.684 243.927 53.436C243.927 52.092 244.215 50.676 244.791 49.188C245.367 47.7 246.099 46.32 246.987 45.048C247.899 43.776 248.883 42.72 249.939 41.88C250.995 41.016 252.015 40.56 252.999 40.512C253.239 40.584 253.503 40.728 253.791 40.944C254.103 41.16 254.391 41.412 254.655 41.7C254.943 41.988 255.183 42.288 255.375 42.6C255.567 42.888 255.675 43.14 255.699 43.356C254.739 43.5 253.743 43.968 252.711 44.76C251.703 45.552 250.779 46.512 249.939 47.64C249.123 48.744 248.451 49.932 247.923 51.204C247.395 52.476 247.131 53.664 247.131 54.768C247.131 55.224 247.299 55.512 247.635 55.632C248.331 55.488 249.135 54.9 250.047 53.868C250.959 52.812 252.063 51.192 253.359 49.008C253.599 48.576 253.863 48.096 254.151 47.568C254.463 47.04 254.775 46.488 255.087 45.912C255.399 45.336 255.699 44.76 255.987 44.184C256.299 43.584 256.587 43.008 256.851 42.456ZM262.794 67.404C262.194 67.164 261.834 66.708 261.714 66.036C261.618 65.388 261.21 64.86 260.49 64.452C260.682 63.228 260.898 61.992 261.138 60.744C261.378 59.496 261.678 58.08 262.038 56.496C262.422 54.888 262.89 53.028 263.442 50.916C264.018 48.78 264.738 46.2 265.602 43.176C264.81 43.176 264.186 43.188 263.73 43.212C263.274 43.236 262.83 43.284 262.398 43.356C262.302 43.26 262.218 43.128 262.146 42.96C262.098 42.792 262.074 42.636 262.074 42.492C262.314 42.396 262.806 42.276 263.55 42.132C264.294 41.964 265.11 41.82 265.998 41.7C266.574 39.876 267.234 38.244 267.978 36.804C268.722 35.34 269.526 34.092 270.39 33.06C271.254 32.028 272.166 31.236 273.126 30.684C274.086 30.132 275.058 29.856 276.042 29.856C276.33 29.856 276.606 29.88 276.87 29.928C277.134 29.952 277.338 29.964 277.482 29.964C277.698 29.796 277.986 29.652 278.346 29.532C278.706 29.388 279.018 29.316 279.282 29.316C279.57 29.316 279.942 29.472 280.398 29.784C280.206 30.12 280.002 30.576 279.786 31.152C279.57 31.728 279.39 32.292 279.246 32.844C278.646 34.62 278.01 35.772 277.338 36.3C277.074 36.3 276.93 35.952 276.906 35.256C276.882 34.752 276.81 34.26 276.69 33.78C276.594 33.564 276.522 33.372 276.474 33.204C276.45 33.036 276.438 32.82 276.438 32.556C276.438 32.412 276.45 32.244 276.474 32.052C276.498 31.836 276.546 31.488 276.618 31.008C276.21 31.008 275.754 31.26 275.25 31.764C274.77 32.268 274.254 32.988 273.702 33.924C273.174 34.836 272.634 35.928 272.082 37.2C271.53 38.472 271.002 39.876 270.498 41.412L273.522 41.304C273.642 41.424 273.738 41.7 273.81 42.132C273.906 42.54 273.966 42.972 273.99 43.428L270.03 43.212C269.118 45.924 268.266 48.516 267.474 50.988C266.682 53.46 265.974 55.74 265.35 57.828C264.726 59.916 264.186 61.776 263.73 63.408C263.298 65.064 262.986 66.396 262.794 67.404ZM285.866 42.096C285.77 43.584 285.506 44.868 285.074 45.948C284.642 47.004 284.018 47.94 283.202 48.756C282.41 49.548 281.438 50.268 280.286 50.916C279.134 51.564 277.79 52.188 276.254 52.788C276.254 52.932 276.242 53.088 276.218 53.256C276.218 53.4 276.218 53.556 276.218 53.724C276.218 54.036 276.242 54.36 276.29 54.696C276.338 55.032 276.422 55.344 276.542 55.632C276.662 55.92 276.83 56.16 277.046 56.352C277.262 56.52 277.538 56.604 277.874 56.604C278.522 56.604 279.158 56.46 279.782 56.172C280.406 55.884 280.994 55.536 281.546 55.128C282.122 54.696 282.65 54.24 283.13 53.76C283.634 53.256 284.078 52.8 284.462 52.392C284.702 52.608 284.906 52.812 285.074 53.004C283.994 54.444 282.806 55.644 281.51 56.604C280.238 57.54 279.026 58.14 277.874 58.404C276.218 58.212 274.922 57.612 273.986 56.604C273.074 55.572 272.618 54.336 272.618 52.896C272.618 51.912 272.75 50.916 273.014 49.908C273.302 48.876 273.686 47.892 274.166 46.956C274.67 45.996 275.246 45.096 275.894 44.256C276.566 43.416 277.274 42.684 278.018 42.06C278.786 41.436 279.566 40.944 280.358 40.584C281.174 40.224 281.978 40.044 282.77 40.044C283.874 40.188 284.906 40.872 285.866 42.096ZM283.382 43.284C282.734 43.38 282.062 43.644 281.366 44.076C280.67 44.508 280.01 45.084 279.386 45.804C278.786 46.524 278.234 47.364 277.73 48.324C277.226 49.284 276.83 50.316 276.542 51.42C278.462 50.46 280.058 49.284 281.33 47.892C282.602 46.476 283.286 44.94 283.382 43.284ZM289.286 30.756C289.526 30.9 289.766 31.14 290.006 31.476C290.27 31.788 290.498 32.148 290.69 32.556C290.906 32.94 291.074 33.336 291.194 33.744C291.314 34.152 291.374 34.524 291.374 34.86C290.462 35.484 289.658 36 288.962 36.408C288.29 36.816 287.678 37.152 287.126 37.416C286.598 37.656 286.13 37.836 285.722 37.956C285.314 38.052 284.918 38.1 284.534 38.1C283.766 38.1 283.106 37.872 282.554 37.416C283.082 37.224 283.634 36.924 284.21 36.516C284.786 36.108 285.362 35.616 285.938 35.04C286.538 34.464 287.114 33.816 287.666 33.096C288.242 32.376 288.782 31.596 289.286 30.756Z" fill="#CD0B0B"/>
<g filter="url(#filter0_f_1850_9)">
<path d="M120 66C140.833 79.5 199.1 98.4 265.5 66M141 21.8344C154.667 15.1678 193.9 5.83443 241.5 21.8344M147.5 35C153.5 31.6667 168.7 25.7 181.5 28.5M212.5 28.5C213.833 27.3333 218.3 26.2 225.5 31M173.5 67.5C180.833 69.1667 198.7 71.5 211.5 67.5M105 43.5C104.667 42 105.1 38.1 109.5 34.5" stroke="#FFB814"/>
</g>
<defs>
<filter id="filter0_f_1850_9" x="103.412" y="11.5" width="163.308" height="73.8899" filterUnits="userSpaceOnUse" color-interpolation-filters="sRGB">
<feFlood flood-opacity="0" result="BackgroundImageFix"/>
<feBlend mode="normal" in="SourceGraphic" in2="BackgroundImageFix" result="shape"/>
<feGaussianBlur stdDeviation="0.5" result="effect1_foregroundBlur_1850_9"/>
</filter>
</defs>
</svg>
