<svg width="709" height="1070" viewBox="0 0 709 1070" fill="none" xmlns="http://www.w3.org/2000/svg">
<path d="M0.0782986 71.6441L167.578 66.4996L337.078 53.9996L486.578 36.4996L638.519 27L640.578 272.5L656.078 514.5L679.578 771L708.276 1024.56L69.8348 1069.21L36.5783 569L36.5783 436L0.0782986 71.6441Z" fill="black"/>
<path d="M19.6855 98.4355L313.887 82.797L612.486 63.7374L614.441 280.234L629.59 496.242L649.627 748.414L677.972 1001.56L381.5 1026.5L185 1034L89.0781 1041L65.6238 731.309L50.9625 412.674L19.6855 98.4355Z" fill="#ECE9E9"/>
<path d="M36.5782 119L316.077 108L600.577 72.4999L600.577 263.5L625.578 595L639.078 700L667.578 996L383.078 1007L105.578 1019.5L76.5783 725.5L73.0782 463L36.5782 119Z" fill="#0C0C0C"/>
<path d="M53.4111 136.541L243.139 128.656L342.191 124.221L507.771 100.566L588.591 93.1741L583.662 277.481L580.706 298.179L592.04 363.721L600.911 542.607L604.95 558.315L602.882 580.552L617.44 655.458L627.523 813.646L648.578 979L392.578 992.5L117.078 1007.5L90.8635 714.593L90.8635 517.967L71.1516 293.743L53.4111 136.541Z" fill="white"/>
<path d="M592.578 31.5L571.578 70.5L581.578 130.5L613.078 156L647.078 193L652.078 195.5" stroke="black" stroke-width="8"/>
<path d="M592.578 32.5L631.078 6L674.578 55.5L649.578 121L637.078 176.5L641.078 208.5L676.078 168L696.578 194.5L683.578 220L639.578 211.5" stroke="black" stroke-width="8"/>
</svg>
