<svg width="64" height="64" viewBox="0 0 64 64" fill="none" xmlns="http://www.w3.org/2000/svg">
<g filter="url(#filter0_d_1419_141)">
<ellipse cx="32.4855" cy="38.7034" rx="25.2022" ry="14.9411" transform="rotate(-17.1349 32.4855 38.7034)" fill="black"/>
<ellipse cx="32.4855" cy="38.7034" rx="25.2022" ry="14.9411" transform="rotate(-17.1349 32.4855 38.7034)" fill="black" fill-opacity="0.2"/>
</g>
<path d="M37 10L42 11" stroke="black"/>
<path d="M33.8062 9.36426L35.1941 9.63567" stroke="black"/>
<path d="M27.0221 6.62813L51.2803 10.3201C51.5819 10.366 51.7724 10.669 51.6832 10.9607L41.2179 45.1648C41.1386 45.4238 40.8675 45.5726 40.6065 45.5004L18.0583 39.2651C17.7921 39.1915 17.6361 38.916 17.7097 38.6499L26.465 6.98917C26.5325 6.74511 26.7718 6.59003 27.0221 6.62813Z" fill="white" stroke="black"/>
<path d="M32 13L31.1426 9.48828L45.0735 11.5328L42.5 14.5L32 13Z" fill="white" stroke="black"/>
<path d="M34.5 11.5L41.5 12.5" stroke="black"/>
<path d="M28.0581 16.1811L29.9953 15L28.9225 19.7099L27.2385 19.4461L29.608 20.0294L29.9408 20.0108" stroke="black"/>
<path d="M41.2051 18.4536L43.1423 17.2725L42.0695 21.9823L40.3855 21.7185L42.755 22.3018L43.0878 22.2833" stroke="black"/>
<path d="M31.1426 17.6074L32.3811 15.8691L33.4166 16.4791L34.1565 17.7733L33.8979 19.1231L32.6037 19.8629L31.1982 18.6059L31.1426 17.6074Z" stroke="black"/>
<path d="M37.2121 18.6875L38.4275 16.5332L39.4723 17.3096L40.2307 18.9366L39.9906 20.6192L38.7058 21.5255L37.2817 19.9356L37.2121 18.6875Z" stroke="black"/>
<circle cx="34.7946" cy="20.2409" r="0.5" transform="rotate(-3.19067 34.7946 20.2409)" fill="black"/>
<circle cx="35.6262" cy="17.1901" r="0.5" transform="rotate(-3.19067 35.6262 17.1901)" fill="black"/>
<defs>
<filter id="filter0_d_1419_141" x="7.99854" y="22.6064" width="52.9736" height="36.1934" filterUnits="userSpaceOnUse" color-interpolation-filters="sRGB">
<feFlood flood-opacity="0" result="BackgroundImageFix"/>
<feColorMatrix in="SourceAlpha" type="matrix" values="0 0 0 0 0 0 0 0 0 0 0 0 0 0 0 0 0 0 127 0" result="hardAlpha"/>
<feOffset dx="2" dy="2"/>
<feGaussianBlur stdDeviation="1"/>
<feComposite in2="hardAlpha" operator="out"/>
<feColorMatrix type="matrix" values="0 0 0 0 0 0 0 0 0 0 0 0 0 0 0 0 0 0 0.25 0"/>
<feBlend mode="normal" in2="BackgroundImageFix" result="effect1_dropShadow_1419_141"/>
<feBlend mode="normal" in="SourceGraphic" in2="effect1_dropShadow_1419_141" result="shape"/>
</filter>
</defs>
</svg>
