<svg width="486" height="486" viewBox="0 0 486 486" fill="none" xmlns="http://www.w3.org/2000/svg">
<g clip-path="url(#clip0_1788_215)">
<path d="M357.855 373.043L325.582 428.098C322.102 433.793 311.344 441.766 296.156 428.098C277.172 411.012 280.969 407.215 283.816 403.418C286.095 400.38 294.891 389.496 299.004 384.434L292.359 377.789L297.106 356.906C282.867 346.781 245.468 327.67 209.777 332.227C165.164 337.922 154.722 335.074 114.855 331.277C88.2773 335.074 188.895 121.5 233.508 117.703C253.441 151.875 253.441 163.266 266.731 182.25L266.935 182.542C280.377 201.745 315.305 251.644 347.414 271.477C373.233 287.423 388.547 300.902 392.977 305.648C394.875 314.508 397.153 335.454 391.078 348.363C385.003 361.273 366.398 370.195 357.855 373.043Z" fill="#040404"/>
<path d="M347.414 299.953L348.363 288.563C360.387 297.105 385.003 314.951 387.281 317.988C390.129 321.785 383.484 328.43 382.535 328.43C381.776 328.43 381.586 325.266 381.586 323.684L347.414 299.953Z" fill="#D9D9D9"/>
<path d="M295.207 407.215L315.141 361.652C325.013 359.374 317.356 377.789 312.293 387.281L298.055 409.113H295.207V407.215Z" fill="#D9D9D9"/>
<path d="M318.938 343.617C315.141 343.617 312.293 346.148 311.344 347.414L355.008 364.5L355.957 361.652C345.199 355.641 322.734 343.617 318.938 343.617Z" fill="#D9D9D9"/>
<path d="M326.52 332.924C322.739 332.575 319.671 334.834 318.609 336.007L360.518 357.033L361.725 354.285C351.565 347.31 330.3 333.273 326.52 332.924Z" fill="#D9D9D9"/>
<path d="M286.665 333.176C279.07 330.328 270.527 327.481 266.731 330.328C264.833 334.125 307.119 349.963 302.802 344.567C295.207 335.074 295.553 336.509 286.665 333.176Z" fill="#D9D9D9"/>
<path d="M180.352 324.633C168.012 325.582 142.066 329.379 122.449 330.328C175.606 288.563 193.505 247.746 202.184 232.558C209.777 219.269 226.863 183.199 229.711 157.57L231.609 130.992L238.254 132.89C238.254 132.89 238.254 135.738 242.051 147.129C245.848 158.519 257.808 177.694 263.883 189.844C269.958 201.994 282.867 217.371 287.613 226.863L293.309 238.254C296.156 243.949 335.074 274.324 338.871 278.121C342.668 281.918 338.555 283.5 336.024 283.816L287.613 243.949C286.031 243 282.867 243.19 282.867 251.543C282.867 259.896 317.039 285.398 334.125 297.106L331.277 304.699C324.316 301.535 303.56 289.322 276.223 265.781C257.238 303.75 245.848 323.683 235.406 324.633C217.371 325.582 190.805 323.829 180.352 324.633Z" fill="#D9D9D9"/>
<path d="M129.094 312.293C131.372 316.09 127.512 318.938 125.297 319.887C124.763 320.138 121.5 319.887 118.652 317.039C115.805 314.191 121.5 299.953 123.398 293.308C124.536 289.326 137.32 259.137 144.281 244.898C152.824 249.012 169.151 257.618 166.113 259.137C163.076 260.655 161.684 270.527 161.367 275.273C161.367 279.703 159.659 288.183 152.824 286.664C149.027 264.832 149.977 264.832 138.586 274.324C129.474 281.918 125.93 297.105 125.297 303.75C125.613 305.016 126.816 308.496 129.094 312.293Z" fill="#D9D9D9"/>
<path d="M176.555 241.102L151.875 228.762C152.824 226.23 155.482 220.028 158.52 215.472C162.316 209.777 168.567 208.828 169.91 208.828C171.809 208.828 175.606 209.772 182.25 209.777C183.199 209.778 185.098 209.778 183.199 204.082C184.149 199.336 196.488 201.235 200.285 202.184C202.5 202.817 206.55 205.221 205.031 209.778C195.919 231.8 193.641 236.356 188.895 237.305C180.984 233.192 164.298 224.359 160.418 223.066C157.57 222.117 158.52 224.965 160.418 225.914C165.164 228.762 175.795 234.457 180.352 238.254C183.199 241.102 180.352 243 176.555 241.102Z" fill="#D9D9D9"/>
<path d="M178.453 185.098C176.555 179.403 210.727 134.789 215.473 138.586C217.371 140.484 205.98 159.468 210.727 174.656C206.62 183.632 200.285 185.097 196.488 195.539C193.641 196.489 180.352 190.793 178.453 185.098Z" fill="#D9D9D9"/>
<path d="M139.535 224.015C138.586 222.117 141.434 221.168 139.535 219.269C137.637 217.371 136.688 226.863 136.688 226.863C136.688 226.863 136.688 232.558 141.434 231.609C146.18 230.66 152.824 222.117 152.824 222.117L161.367 210.726C164.215 205.98 168.961 195.539 168.012 192.691C167.341 190.677 164.215 186.047 162.317 186.047C160.418 186.047 154.723 188.894 154.723 189.844C154.723 191.742 160.418 190.793 161.367 192.691C162.633 196.488 160.798 202.373 154.723 210.726C147.129 221.168 141.336 227.618 139.535 224.015Z" fill="#D9D9D9"/>
<path d="M160.418 192.691C158.139 193.451 155.672 191.109 154.723 189.844C146.37 196.678 141.117 209.461 139.535 214.523C138.586 219.586 137.827 228.002 142.383 224.965C146.939 221.927 155.671 209.145 159.468 203.133C160.734 199.336 162.696 191.932 160.418 192.691Z" fill="black"/>
<path d="M233.508 117.703C253.441 151.875 253.441 163.266 266.731 182.25L266.935 182.542C280.377 201.745 315.305 251.644 347.414 271.477C373.233 287.423 388.547 300.902 392.977 305.648C394.875 314.508 397.153 335.454 391.078 348.363C385.003 361.273 366.398 370.195 357.855 373.043L325.582 428.098C322.102 433.793 311.344 441.766 296.156 428.098C277.172 411.012 280.969 407.215 283.816 403.418C286.095 400.38 294.891 389.496 299.004 384.434L292.359 377.789L297.106 356.906C282.867 346.781 245.468 327.67 209.777 332.227C165.164 337.922 154.722 335.074 114.855 331.277M233.508 117.703C188.895 121.5 88.2773 335.074 114.855 331.277M233.508 117.703C230.66 214.523 141.434 327.48 114.855 331.277M154.723 189.844C154.723 191.742 160.418 190.793 161.367 192.691C162.633 196.488 160.798 202.373 154.723 210.726C147.129 221.168 141.336 227.618 139.535 224.015C138.586 222.117 141.434 221.168 139.535 219.269C137.637 217.371 136.688 226.863 136.688 226.863C136.688 226.863 136.688 232.558 141.434 231.609C146.18 230.66 152.824 222.117 152.824 222.117L161.367 210.726C164.215 205.98 168.961 195.539 168.012 192.691C167.341 190.677 164.215 186.047 162.317 186.047C160.418 186.047 154.723 188.894 154.723 189.844ZM154.723 189.844C155.672 191.109 158.139 193.451 160.418 192.691C162.696 191.932 160.734 199.336 159.468 203.133C155.671 209.145 146.939 221.927 142.383 224.965C137.827 228.002 138.586 219.586 139.535 214.523C141.117 209.461 146.37 196.678 154.723 189.844ZM348.363 288.563L347.414 299.953L381.586 323.684C381.586 325.266 381.776 328.43 382.535 328.43C383.484 328.43 390.129 321.785 387.281 317.988C385.003 314.951 360.387 297.105 348.363 288.563ZM315.141 361.652L295.207 407.215V409.113H298.055L312.293 387.281C317.356 377.789 325.013 359.374 315.141 361.652ZM311.344 347.414C312.293 346.148 315.141 343.617 318.938 343.617C322.734 343.617 345.199 355.641 355.957 361.652L355.008 364.5L311.344 347.414ZM318.609 336.007C319.671 334.834 322.739 332.575 326.52 332.924C330.3 333.273 351.565 347.31 361.725 354.285L360.518 357.033L318.609 336.007ZM266.731 330.328C270.527 327.481 279.07 330.328 286.665 333.176C295.553 336.509 295.207 335.074 302.802 344.567C307.119 349.963 264.833 334.125 266.731 330.328ZM122.449 330.328C142.066 329.379 168.012 325.582 180.352 324.633C190.805 323.829 217.371 325.582 235.406 324.633C245.848 323.683 257.238 303.75 276.223 265.781C303.56 289.322 324.316 301.535 331.277 304.699L334.125 297.106C317.039 285.398 282.867 259.896 282.867 251.543C282.867 243.19 286.031 243 287.613 243.949L336.024 283.816C338.555 283.5 342.668 281.918 338.871 278.121C335.074 274.324 296.156 243.949 293.309 238.254L287.613 226.863C282.867 217.371 269.958 201.994 263.883 189.844C257.808 177.694 245.848 158.519 242.051 147.129C238.254 135.738 238.254 132.89 238.254 132.89L231.609 130.992L229.711 157.57C226.863 183.199 209.777 219.269 202.184 232.558C193.505 247.746 175.606 288.563 122.449 330.328ZM125.297 319.887C127.512 318.938 131.372 316.09 129.094 312.293C126.816 308.496 125.613 305.016 125.297 303.75C125.93 297.105 129.474 281.918 138.586 274.324C149.977 264.832 149.027 264.832 152.824 286.664C159.659 288.183 161.367 279.703 161.367 275.273C161.684 270.527 163.076 260.655 166.113 259.137C169.151 257.618 152.824 249.012 144.281 244.898C137.32 259.137 124.536 289.326 123.398 293.308C121.5 299.953 115.805 314.191 118.652 317.039C121.5 319.887 124.763 320.138 125.297 319.887ZM151.875 228.762L176.555 241.102C180.352 243 183.199 241.102 180.352 238.254C175.795 234.457 165.164 228.762 160.418 225.914C158.52 224.965 157.57 222.117 160.418 223.066C164.298 224.359 180.984 233.192 188.895 237.305C193.641 236.356 195.919 231.8 205.031 209.778C206.55 205.221 202.5 202.817 200.285 202.184C196.488 201.235 184.149 199.336 183.199 204.082C185.098 209.778 183.199 209.778 182.25 209.777C175.606 209.772 171.809 208.828 169.91 208.828C168.567 208.828 162.316 209.777 158.52 215.472C155.482 220.028 152.824 226.23 151.875 228.762ZM215.473 138.586C210.727 134.789 176.555 179.403 178.453 185.098C180.352 190.793 193.641 196.489 196.488 195.539C200.285 185.097 206.62 183.632 210.727 174.656C205.98 159.468 217.371 140.484 215.473 138.586Z" stroke="black" stroke-width="1.89844"/>
<path d="M133.84 409.113C145.99 408.354 219.27 387.598 244.898 377.789C172.758 430.945 93.0234 465.117 97.7695 461.32C104.399 456.017 112.875 432.053 110.109 432.844C103.465 434.742 19.5268 425.25 11.3906 419.555C22.7812 422.112 108.211 409.113 133.84 373.992V409.113Z" fill="white" stroke="black" stroke-width="7.59375"/>
<path d="M306.086 96.2544C300.324 85.5306 250.874 27.6047 231.263 8.40984C309.68 51.776 374.015 109.967 368.584 107.239C360.997 103.429 335.683 105.729 337.556 107.913C342.055 113.158 368.467 193.396 366.688 203.167C364.257 191.748 316.784 119.544 274.171 110.915L306.086 96.2544Z" fill="white" stroke="black" stroke-width="7.59375"/>
</g>
<defs>
<clipPath id="clip0_1788_215">
<rect width="486" height="486" fill="white"/>
</clipPath>
</defs>
</svg>
